<svg xmlns="http://www.w3.org/2000/svg" viewBox="0 0 100 100" fill="none">
  <circle cx="50" cy="50" r="46" fill="#FAF6F0" stroke="#C4A883" stroke-width="2"/>
  <path d="M50 20C42 20 38 27 38 34C38 42 45 47 48 52C51 57 47 68 42 75C46 76 52 74 56 68C60 62 62 52 60 44C58 36 60 30 57 25C55 22 53 20 50 20Z" stroke="#C4A883" stroke-width="2.5" stroke-linecap="round" stroke-linejoin="round"/>
  <path d="M42 38C44 32 48 30 52 30" stroke="#C4A883" stroke-width="1.8" stroke-linecap="round"/>
  <path d="M40 50C43 51 46 51 49 50" stroke="#C4A883" stroke-width="1.5" stroke-linecap="round"/>
</svg>